name rise44.8762peak52.3436fall86.788.mot
datacolumns 19
datarows 12
range 19.36992500000000 19.38825800000000
endheader
time	ground_force1_vx	ground_force1_vy	ground_force1_vz	ground_force1_px	ground_force1_py	ground_force1_pz	ground_force2_vx	ground_force2_vy	ground_force2_vz	ground_force2_px	ground_force2_py	ground_force2_pz	ground_torque1_x	ground_torque1_y	ground_torque1_z	ground_torque2_x	ground_torque2_y	ground_torque2_z	
19.36992500000000	41.75800100000000	823.73374600000000	83.37112800000000	0.24128400000000	0.00000000000000	0.14836100000000	0.00000000000000	0.00000000000000	0.00000000000000	0.00000000000000	0.00000000000000	0.00000000000000	0.00000000000000	28.80740200000000	0.00000000000000	0.00000000000000	0.00000000000000	0.00000000000000	
19.37158700000000	40.77744300000000	823.53950899999995	82.97199000000001	0.24009100000000	0.00000000000000	0.14831000000000	0.00000000000000	0.00000000000000	0.00000000000000	0.00000000000000	0.00000000000000	0.00000000000000	0.00000000000000	28.69705200000000	0.00000000000000	0.00000000000000	0.00000000000000	0.00000000000000	
19.37326000000000	39.80466300000000	823.16024000000004	82.55647700000000	0.23892000000000	0.00000000000000	0.14825900000000	0.00000000000000	0.00000000000000	0.00000000000000	0.00000000000000	0.00000000000000	0.00000000000000	0.00000000000000	28.57974200000000	0.00000000000000	0.00000000000000	0.00000000000000	0.00000000000000	
19.37492700000000	38.84097900000000	822.60064499999999	82.12620300000000	0.23777200000000	0.00000000000000	0.14820700000000	0.00000000000000	0.00000000000000	0.00000000000000	0.00000000000000	0.00000000000000	0.00000000000000	0.00000000000000	28.45595700000000	0.00000000000000	0.00000000000000	0.00000000000000	0.00000000000000	
19.37660500000000	37.88760300000000	821.86571300000003	81.68272399999999	0.23664500000000	0.00000000000000	0.14815400000000	0.00000000000000	0.00000000000000	0.00000000000000	0.00000000000000	0.00000000000000	0.00000000000000	0.00000000000000	28.32616100000000	0.00000000000000	0.00000000000000	0.00000000000000	0.00000000000000	
19.37825600000000	36.94564300000000	820.96071199999994	81.22753400000001	0.23553900000000	0.00000000000000	0.14810200000000	0.00000000000000	0.00000000000000	0.00000000000000	0.00000000000000	0.00000000000000	0.00000000000000	0.00000000000000	28.19079500000000	0.00000000000000	0.00000000000000	0.00000000000000	0.00000000000000	
19.37992100000000	36.01610200000000	819.89117399999998	80.76206300000000	0.23445100000000	0.00000000000000	0.14804900000000	0.00000000000000	0.00000000000000	0.00000000000000	0.00000000000000	0.00000000000000	0.00000000000000	0.00000000000000	28.05027700000000	0.00000000000000	0.00000000000000	0.00000000000000	0.00000000000000	
19.38159500000000	35.09988100000000	818.66288599999996	80.28767900000000	0.23338100000000	0.00000000000000	0.14799700000000	0.00000000000000	0.00000000000000	0.00000000000000	0.00000000000000	0.00000000000000	0.00000000000000	0.00000000000000	27.90500500000000	0.00000000000000	0.00000000000000	0.00000000000000	0.00000000000000	
19.38326000000000	34.19777800000000	817.28188000000000	79.80568599999999	0.23232700000000	0.00000000000000	0.14794500000000	0.00000000000000	0.00000000000000	0.00000000000000	0.00000000000000	0.00000000000000	0.00000000000000	0.00000000000000	27.75535700000000	0.00000000000000	0.00000000000000	0.00000000000000	0.00000000000000	
19.38492500000000	33.31049400000000	815.75441200000000	79.31732500000000	0.23128900000000	0.00000000000000	0.14789400000000	0.00000000000000	0.00000000000000	0.00000000000000	0.00000000000000	0.00000000000000	0.00000000000000	0.00000000000000	27.60169300000000	0.00000000000000	0.00000000000000	0.00000000000000	0.00000000000000	
19.38659100000000	32.43863400000000	814.08695599999999	78.82377200000001	0.23026400000000	0.00000000000000	0.14784300000000	0.00000000000000	0.00000000000000	0.00000000000000	0.00000000000000	0.00000000000000	0.00000000000000	0.00000000000000	27.44435500000000	0.00000000000000	0.00000000000000	0.00000000000000	0.00000000000000	
19.38825800000000	31.58270900000000	812.28617899999995	78.32614100000001	0.22925100000000	0.00000000000000	0.14779300000000	0.00000000000000	0.00000000000000	0.00000000000000	0.00000000000000	0.00000000000000	0.00000000000000	0.00000000000000	27.28366600000000	0.00000000000000	0.00000000000000	0.00000000000000	0.00000000000000	
